# xmcd
#
# Track frame offsets:
#	150
#	16101
#	33165
#	50008
#	69249
#	86458
#	104913
#	120164
#	135069
#	152421
#	167310
#	181955
#	201933
#	222788
#	239711
#	254338
#	265700
#	277744
#	293011
#	309777
#
# Disc length: 4362 seconds
#
# Revision: 1
# Processed by: cddbd v1.5.2PL0 Copyright (c) Steve Scherf et al.
# Submitted via: audiograbber 1.83.01
#
DISCID=fc110814
DTITLE=Various Artist - CDX Vol 445 March 2008
DYEAR=2008
DGENRE=Country
TTITLE0=Chuck Wicks - All I Ever Wanted
TTITLE1=Kenny Chesney - Better As A Memory
TTITLE2=Eric Church - His Kind Of Money My Kind Of Love
TTITLE3=Jamey Johnson - In Color
TTITLE4=Rodney Atkins - Invisibly Shaken
TTITLE5=Carrie Underwood - Last Name
TTITLE6=Ashley Gearing - Out The Window
TTITLE7=Adam Gregory - Crazy Days
TTITLE8=Drew Davis Band - How Do I
TTITLE9=Neal McCoy - Rednectified
TTITLE10=Stella Parton - Virtuous Woman
TTITLE11=John Stone - Baby Come Back
TTITLE12=Mollye Rees - Beautiful
TTITLE13=Nikki Britt - Cowboy
TTITLE14=Jason Mitchell - Don't Get No Sand in It
TTITLE15=The Boys of the Fort - Family Reunion
TTITLE16=Vivian Ashton - Make Her Money
TTITLE17=Shawn Hammonds - Somebody Mama Would Like
TTITLE18=Cody McCarver - Tonight's The Niight
TTITLE19=Heather Wilkins - Watch Where We're Goin'
EXTD=
EXTT0=
EXTT1=
EXTT2=
EXTT3=
EXTT4=
EXTT5=
EXTT6=
EXTT7=
EXTT8=
EXTT9=
EXTT10=
EXTT11=
EXTT12=
EXTT13=
EXTT14=
EXTT15=
EXTT16=
EXTT17=
EXTT18=
EXTT19=
PLAYORDER=
